<?xml version="1.0" encoding="utf-8"?>
<!-- Generator: Adobe Illustrator 25.2.0, SVG Export Plug-In . SVG Version: 6.00 Build 0)  -->
<svg version="1.1" id="Calque_1" xmlns="http://www.w3.org/2000/svg" xmlns:xlink="http://www.w3.org/1999/xlink" x="0px" y="0px"
	 viewBox="0 0 154.2 96" style="enable-background:new 0 0 154.2 96;" xml:space="preserve">
<style type="text/css">
	.st0{fill:#FFFFFF;}
</style>
<path class="st0" d="M152.7,54.7c-3,11.9-9.9,24.5-19.7,36.1c-11.6-18-26.9-32.6-46.4-43.5c10.9-10.5,23.1-18.2,34.7-22
	c11.8-3.9,21.8-3.1,27.4,2.2C154.3,32.8,155.7,42.7,152.7,54.7z M30.7,13.9c-8.5,4.6-16.5,10.4-23.6,17.6C1.7,36.9,0.6,46.9,4,58.8
	C7.4,70.5,14.7,83,24.8,94.2l45-45l0.1-0.1l4.7-4.7c1.5-1.5,3.1-3,4.7-4.5c12.9-11.7,27.4-20.3,41.3-24.3c2.5-0.7,4.9-1.3,7.3-1.7
	C97.7-2.5,60.9-2.5,30.7,13.9z"/>
</svg>
